<svg xmlns:dc="http://purl.org/dc/elements/1.1/" xmlns:cc="http://creativecommons.org/ns#" xmlns:rdf="http://www.w3.org/1999/02/22-rdf-syntax-ns#" xmlns:svg="http://www.w3.org/2000/svg" xmlns="http://www.w3.org/2000/svg" xmlns:sodipodi="http://sodipodi.sourceforge.net/DTD/sodipodi-0.dtd" xmlns:inkscape="http://www.inkscape.org/namespaces/inkscape" width="400" height="200" version="1.2" sodipodi:docname="node.svg" inkscape:version="0.92.2 (unknown)" style=""><rect id="backgroundrect" width="100%" height="100%" x="0" y="0" fill="none" stroke="none" style="" class=""/>
  <metadata id="metadata62">
    <rdf:RDF>
      <cc:Work rdf:about="">
        <dc:format>image/svg+xml</dc:format>
        <dc:type rdf:resource="http://purl.org/dc/dcmitype/StillImage"/>
        <dc:title/>
      </cc:Work>
    </rdf:RDF>
  </metadata>
  <sodipodi:namedview pagecolor="#ffffff" bordercolor="#666666" borderopacity="1" objecttolerance="10" gridtolerance="10" guidetolerance="10" inkscape:pageopacity="0" inkscape:pageshadow="2" inkscape:window-width="640" inkscape:window-height="480" id="namedview60" showgrid="false" inkscape:zoom="0.60251389" inkscape:cx="868.01746" inkscape:cy="-28.766954" inkscape:current-layer="svg58"/>
  <defs id="defs36">
    <clipPath id="a">
      <path d="m 239.03,226.605 -42.13,24.317 c -1.578,0.91 -2.546,2.59 -2.546,4.406 v 48.668 c 0,1.817 0.968,3.496 2.546,4.406 l 42.133,24.336 c 1.575,0.907 3.517,0.907 5.09,0 l 42.126,-24.336 c 1.57,-0.91 2.54,-2.59 2.54,-4.406 v -48.668 c 0,-1.816 -0.97,-3.496 -2.55,-4.406 l -42.12,-24.317 c -0.79,-0.453 -1.67,-0.68 -2.55,-0.68 -0.88,0 -1.76,0.227 -2.55,0.68" id="path2" inkscape:connector-curvature="0"/>
    </clipPath>
    <linearGradient id="b" x1="-0.3479999899864197" x2="1.2510000467300415" gradientTransform="matrix(-67.548171,137.79774,-137.79774,-67.548171,-87.500789,247.19913)" gradientUnits="userSpaceOnUse">
      <stop offset=".3" stop-color="#3E863D" id="stop5"/>
      <stop offset=".5" stop-color="#55934F" id="stop7"/>
      <stop offset=".8" stop-color="#5AAD45" id="stop9"/>
    </linearGradient>
    <clipPath id="c">
      <path d="m 195.398,307.086 c 0.403,0.523 0.907,0.976 1.5,1.316 l 36.14,20.875 6.02,3.46 c 0.9,0.52 1.926,0.74 2.934,0.665 0.336,-0.027 0.672,-0.09 1,-0.183 l 44.434,-81.36 c -0.34,-0.37 -0.738,-0.68 -1.184,-0.94 l -27.586,-15.93 -14.582,-8.39 c -0.414,-0.24 -0.863,-0.41 -1.32,-0.53 z m 0,0" id="path12" inkscape:connector-curvature="0"/>
    </clipPath>
    <linearGradient id="d" x1="-0.4560000002384186" x2="0.5820000171661377" gradientTransform="matrix(189.53227,-140.04184,140.04184,189.53227,-129.26489,319.53934)" gradientUnits="userSpaceOnUse">
      <stop offset=".57" stop-color="#3E863D" id="stop15"/>
      <stop offset=".72" stop-color="#619857" id="stop17"/>
      <stop offset="1" stop-color="#76AC64" id="stop19"/>
    </linearGradient>
    <clipPath id="e">
      <path d="m 241.066,225.953 c -0.707,0.07 -1.398,0.29 -2.035,0.652 l -42.01,24.247 45.3,82.51 c 0.63,-0.09 1.25,-0.3 1.81,-0.624 l 42.13,-24.336 c 1.3,-0.754 2.19,-2.03 2.46,-3.476 l -46.18,-78.89 c -0.34,-0.067 -0.68,-0.102 -1.03,-0.102 -0.14,0 -0.28,0.007 -0.42,0.02" id="path22" inkscape:connector-curvature="0"/>
    </clipPath>
    <linearGradient id="f" x1="0.0430000014603138" x2="0.984000027179718" gradientTransform="matrix(172.87153,0,0,172.87153,-204.375,309.3485)" gradientUnits="userSpaceOnUse">
      <stop offset=".16" stop-color="#6BBF47" id="stop25"/>
      <stop offset=".38" stop-color="#79B461" id="stop27"/>
      <stop offset=".47" stop-color="#75AC64" id="stop29"/>
      <stop offset=".7" stop-color="#659E5A" id="stop31"/>
      <stop offset=".9" stop-color="#3E863D" id="stop33"/>
    </linearGradient>
  </defs>
  
  
  
  
  
  
  
<g class="currentLayer" style=""><title>Layer 1</title><path d="m94.26187133789062,99.49713706970215 c-0.8227499723434448,0 -1.6398500204086304,-0.215829998254776 -2.3611600399017334,-0.6311500072479248 l-7.515699863433838,-4.449570178985596 c-1.12253999710083,-0.6277599930763245 -0.5748000144958496,-0.8497899770736694 -0.20455999672412872,-0.9777100086212158 c1.4967199563980103,-0.5240799784660339 1.8004499673843384,-0.6424199938774109 3.3980400562286377,-1.5496900081634521 c0.167930006980896,-0.0957999974489212 0.38769999146461487,-0.06199999898672104 0.5595800280570984,0.039400000125169754 l5.773849964141846,3.426219940185547 c0.2084999978542328,0.11270000040531158 0.5043500065803528,0.11270000040531158 0.6976400017738342,0 l22.512720108032227,-12.994830131530762 c0.20850999653339386,-0.11834000051021576 0.34375,-0.36065998673439026 0.34375,-0.6086099743843079 v-25.978389739990234 c0,-0.2592200040817261 -0.13524000346660614,-0.4902600049972534 -0.34825000166893005,-0.6198700070381165 l-22.50370979309082,-12.983559608459473 c-0.2084999978542328,-0.12398000061511993 -0.4846299886703491,-0.12398000061511993 -0.6931300163269043,0 l-22.49920082092285,12.983559608459473 c-0.2180899977684021,0.12397000193595886 -0.3567099869251251,0.36629000306129456 -0.3567099869251251,0.6142399907112122 v25.978389739990234 c0,0.2479500025510788 0.13524000346660614,0.48462000489234924 0.3493799865245819,0.6029599905014038 l6.164939880371094,3.5614700317382812 c3.347320079803467,1.6736600399017334 5.392910003662109,-0.2986699938774109 5.392910003662109,-2.2822699546813965 v-25.640270233154297 c0,-0.36629000306129456 0.28738999366760254,-0.6480500102043152 0.6536800265312195,-0.6480500102043152 h2.8514299392700195 c0.3550199866294861,0 0.6480500102043152,0.28176000714302063 0.6480500102043152,0.6480500102043152 v25.651540756225586 c0,4.463099956512451 -2.434420108795166,7.027130126953125 -6.666470050811768,7.027130126953125 c-1.301740050315857,0 -2.327349901199341,0 -5.19005012512207,-1.408810019493103 l-5.905720233917236,-3.4036800861358643 c-1.4595199823379517,-0.8452799916267395 -2.361150026321411,-2.423140048980713 -2.361150026321411,-4.108069896697998 v-25.978389739990234 c0,-1.6905699968338013 0.9016299843788147,-3.26842999458313 2.361150026321411,-4.102449893951416 L91.89846801757812,38.66431999206543 c1.425719976425171,-0.805840015411377 3.319149971008301,-0.805840015411377 4.733590126037598,0 l22.507089614868164,13.006099700927734 c1.4538899660110474,0.8396499752998352 2.3611600399017334,2.4118800163269043 2.3611600399017334,4.102439880371094 v25.978389739990234 c0,1.6849299669265747 -0.9072700142860413,3.257159948348999 -2.3611600399017334,4.102439880371094 l-22.507089614868164,13.000470161437988 c-0.721310019493103,0.41701000928878784 -1.538409948348999,0.6311500072479248 -2.3724300861358643,0.6311500072479248 " id="path38" inkscape:connector-curvature="0" style="fill:#689f63;stroke-width:0.56352252" class=""/><path d="m101.21572875976562,81.59628105163574 c-9.850370407104492,0 -11.915679931640625,-4.521699905395508 -11.915679931640625,-8.314209938049316 c0,-0.3606500029563904 0.2907800078392029,-0.6480500102043152 0.6520000100135803,-0.6480500102043152 h2.9077699184417725 c0.32120999693870544,0 0.59170001745224,0.23386000096797943 0.6424199938774109,0.5511199831962585 c0.4395500123500824,2.96301007270813 1.7469199895858765,4.457469940185547 7.703350067138672,4.457469940185547 c4.7448601722717285,0 6.762269973754883,-1.0718200206756592 6.762269973754883,-3.5879499912261963 c0,-1.4482500553131104 -0.5747900009155273,-2.5245800018310547 -7.945670127868652,-3.245889902114868 c-6.1649298667907715,-0.6086000204086304 -9.974340438842773,-1.966689944267273 -9.974340438842773,-6.897520065307617 c0,-4.541989803314209 3.8319499492645264,-7.246890068054199 10.250470161437988,-7.246890068054199 c7.207449913024902,0 10.780190467834473,2.502039909362793 11.230999946594238,7.878039836883545 c0.016899999231100082,0.18595999479293823 -0.050700001418590546,0.36629000306129456 -0.17468999326229095,0.5015400052070618 c-0.12397000193595886,0.12961000204086304 -0.2986699938774109,0.2084999978542328 -0.47898998856544495,0.2084999978542328 h-2.92467999458313 c-0.30430999398231506,0 -0.569159984588623,-0.21413999795913696 -0.6311500072479248,-0.5071700215339661 c-0.7044000029563904,-3.1162800788879395 -2.4062399864196777,-4.113719940185547 -7.032760143280029,-4.113719940185547 c-5.178770065307617,0 -5.781740188598633,1.803279995918274 -5.781740188598633,3.1557300090789795 c0,1.6398500204086304 0.7100399732589722,2.118839979171753 7.697720050811768,3.043020009994507 c6.920050144195557,0.9185400009155273 10.205389976501465,2.214639902114868 10.205389976501465,7.0778398513793945 c0,4.902649879455566 -4.091169834136963,7.714630126953125 -11.225370407104492,7.714630126953125 m27.421009063720703,-27.55061912536621 h0.7551199793815613 c0.6198700070381165,0 0.7382100224494934,-0.4339100122451782 0.7382100224494934,-0.6875 c0,-0.6649500131607056 -0.4564499855041504,-0.6649500131607056 -0.7100399732589722,-0.6649500131607056 h-0.7776600122451782 zm-0.9185500144958496,-2.130110025405884 h1.6736700534820557 c0.5747900009155273,0 1.7018300294876099,0 1.7018300294876099,1.2848299741744995 c0,0.8960000276565552 -0.5747900009155273,1.0819599628448486 -0.9185400009155273,1.1946699619293213 c0.6705899834632874,0.045099999755620956 0.7156800031661987,0.4846299886703491 0.805840015411377,1.1045000553131104 c0.045099999755620956,0.3888300061225891 0.11834000051021576,1.0594199895858765 0.2535800039768219,1.2848299741744995 h-1.0312399864196777 c-0.028200000524520874,-0.22540999948978424 -0.18595999479293823,-1.4651600122451782 -0.18595999479293823,-1.5327800512313843 c-0.06759999692440033,-0.27612999081611633 -0.16343000531196594,-0.41137000918388367 -0.5071700215339661,-0.41137000918388367 h-0.8509200215339661 v1.9497900009155273 h-0.9410899877548218 zm-2.011770009994507,2.423140048980713 c0,2.0174100399017334 1.6285799741744995,3.65162992477417 3.629080057144165,3.65162992477417 c2.0174100399017334,0 3.6459898948669434,-1.668030023574829 3.6459898948669434,-3.65162992477417 c0,-2.0230400562286377 -1.6511199474334717,-3.629080057144165 -3.6516199111938477,-3.629080057144165 c-1.9723299741744995,0 -3.6290900707244873,1.5835000276565552 -3.6290900707244873,3.6234500408172607 m7.979479789733887,0.016899999231100082 c0,2.3893299102783203 -1.9554200172424316,4.339119911193848 -4.339119911193848,4.339119911193848 c-2.36680006980896,0 -4.339119911193848,-1.927240014076233 -4.339119911193848,-4.339119911193848 c0,-2.4569599628448486 2.0174100399017334,-4.339119911193848 4.339119911193848,-4.339119911193848 c2.3386199474334717,0 4.333489894866943,1.8877999782562256 4.333489894866943,4.339119911193848 " id="path40" inkscape:connector-curvature="0" style="fill:#689f63;stroke-width:0.56352252" class=""/><path d="m56.32366943359375,54.8582820892334 c0,-1.0368809700012207 -0.5466200113296509,-1.9892339706420898 -1.4414900541305542,-2.504857063293457 L31.01361083984375,38.62038230895996 c-0.4029200077056885,-0.23668000102043152 -0.8543000221252441,-0.3606550097465515 -1.3118799924850464,-0.37755998969078064 h-0.24682000279426575 c-0.45758000016212463,0.016899999231100082 -0.9089699983596802,0.14088000357151031 -1.3186500072479248,0.37755998969078064 L4.268829345703125,52.35342979431152 c-0.889240026473999,0.5184400081634521 -1.4437400102615356,1.4707930088043213 -1.4437400102615356,2.5076749324798584 l0.052400000393390656,36.98961639404297 c0,0.5128099918365479 0.26486000418663025,0.9918000102043152 0.7156800031661987,1.2453900575637817 c0.4395500123500824,0.27048999071121216 0.9918000102043152,0.27048999071121216 1.431339979171753,0 l14.189499855041504,-8.12600040435791 c0.8960000276565552,-0.5330899953842163 1.442620038986206,-1.4752999544143677 1.442620038986206,-2.502039909362793 V65.18765068054199 c0,-1.0312459468841553 0.5466200113296509,-1.9836000204086304 1.4398000240325928,-2.4964048862457275 l6.04095983505249,-3.4791879653930664 c0.4485599994659424,-0.2592200040817261 0.9410799741744995,-0.387703001499176 1.442620038986206,-0.387703001499176 c0.4936400055885315,0 0.9974300265312195,0.12735599279403687 1.4335999488830566,0.3871400058269501 l6.038139820098877,3.478060007095337 c0.893750011920929,0.5128059983253479 1.442620038986206,1.4651590585708618 1.442620038986206,2.4964048862457275 V82.46526145935059 c0,1.0256099700927734 0.5539399981498718,1.9723199605941772 1.4454400539398193,2.502039909362793 l14.180480003356934,8.120349884033203 c0.4451799988746643,0.26486000418663025 0.9991199970245361,0.26486000418663025 1.4426100254058838,0 c0.4372999966144562,-0.2535800039768219 0.7145500183105469,-0.7325699925422668 0.7145500183105469,-1.2453800439834595 zM168.95379638671875,74.11723136901855 c0,0.25753000378608704 -0.13693000376224518,0.4959000051021576 -0.3606500029563904,0.6232600212097168 l-8.198129653930664,4.7256999015808105 c-0.22258999943733215,0.127920001745224 -0.49759000539779663,0.127920001745224 -0.7196199893951416,0 l-8.199250221252441,-4.7256999015808105 c-0.22540999948978424,-0.127920001745224 -0.3606500029563904,-0.36629000306129456 -0.3606500029563904,-0.6232600212097168 v-9.464921951293945 c0,-0.258092999458313 0.13524000346660614,-0.4958989918231964 0.3550199866294861,-0.6255099773406982 l8.193610191345215,-4.733589172363281 c0.22540999948978424,-0.12961000204086304 0.5015400052070618,-0.12961000204086304 0.7269499897956848,0 l8.199250221252441,4.733589172363281 c0.22540999948978424,0.12961100041866302 0.3606500029563904,0.36741700768470764 0.3606500029563904,0.6255099773406982 zm2.214639902114868,-70.10332489013672 c-0.4474300146102905,-0.24907700717449188 -0.9918000102043152,-0.24231499433517456 -1.4335999488830566,0.01522000040858984 c-0.43953999876976013,0.2592200040817261 -0.7111600041389465,0.7325789928436279 -0.7111600041389465,1.2453850507736206 v36.62895965576172 c0,0.3606550097465515 -0.1915999948978424,0.6931329965591431 -0.503790020942688,0.8734599947929382 c-0.30994001030921936,0.18032699823379517 -0.6959499716758728,0.18032699823379517 -1.0087100267410278,0 l-5.978970050811768,-3.443686008453369 c-0.8903700113296509,-0.5150600075721741 -1.9869799613952637,-0.5150600075721741 -2.880729913711548,0 l-23.876449584960938,13.779815673828125 c-0.89205002784729,0.5128059983253479 -1.4426100254058838,1.4651590585708618 -1.4426100254058838,2.490770101547241 v27.567522048950195 c0,1.03125 0.5505599975585938,1.9779599905014038 1.4426100254058838,2.4964001178741455 l23.876449584960938,13.789400100708008 c0.8914999961853027,0.5127999782562256 1.989240050315857,0.5127999782562256 2.883549928665161,0 l23.876449584960938,-13.795029640197754 c0.8903599977493286,-0.5184400081634521 1.4426100254058838,-1.4651600122451782 1.4426100254058838,-2.4964098930358887 V14.46104621887207 c0,-1.0458979606628418 -0.5691499710083008,-2.00783109664917 -1.4820599555969238,-2.5189459323883057 zm79.50908660888672,60.38932418823242 c0.8869799971580505,-0.5150589942932129 1.4330300092697144,-1.466284990310669 1.4330300092697144,-2.491895914077759 v-6.681122779846191 c0,-1.0278650522232056 -0.5466099977493286,-1.9762729406356812 -1.435289978981018,-2.493587017059326 l-23.724300384521484,-13.772489547729492 c-0.8960000276565552,-0.5184410214424133 -1.9948699474334717,-0.5184410214424133 -2.8908700942993164,0 L200.18927001953125,52.74226188659668 c-0.8960000276565552,0.5184410214424133 -1.442620038986206,1.4651590585708618 -1.442620038986206,2.4964048862457275 v27.556255340576172 c0,1.0368800163269043 0.557889997959137,1.9948699474334717 1.4538899660110474,2.5076699256896973 l23.718660354614258,13.51891040802002 c0.8734599947929382,0.5015299916267395 1.944159984588623,0.5071700215339661 2.828890085220337,0.016899999231100082 l14.34727954864502,-7.973849773406982 c0.4508199989795685,-0.2535800039768219 0.7382100224494934,-0.7325800061225891 0.7382100224494934,-1.2510199546813965 c0,-0.5184400081634521 -0.27612000703811646,-1.0030699968338013 -0.7269399762153625,-1.2566499710083008 l-24.017330169677734,-13.783760070800781 c-0.4508199989795685,-0.2535899877548218 -0.7269399762153625,-0.7325800061225891 -0.7269399762153625,-1.2453900575637817 v-8.644433975219727 c0,-0.5161870121955872 0.27048999071121216,-0.9918000102043152 0.721310019493103,-1.2487659454345703 l7.472300052642822,-4.310946941375732 c0.4451900124549866,-0.2592200040817261 0.9918000102043152,-0.2592200040817261 1.4369900226593018,0 l7.477940082550049,4.310946941375732 c0.4451799988746643,0.25358501076698303 0.721310019493103,0.7325789928436279 0.721310019493103,1.2453850507736206 v6.796084880828857 c0,0.5127999782562256 0.27612000703811646,0.9918000102043152 0.721310019493103,1.2510199546813965 c0.4451799988746643,0.2535800039768219 0.9974300265312195,0.2535800039768219 1.442620038986206,-0.006000000052154064 zm0,0 " id="path42" inkscape:connector-curvature="0" style="fill:#333333;fill-rule:evenodd;stroke-width:0.56352252" class=""/><path d="m223.2869873046875,62.179311752319336 c0.16904999315738678,-0.09973999857902527 0.3809399902820587,-0.09973999857902527 0.5522500276565552,0 l4.581439971923828,2.6429200172424316 c0.17130999267101288,0.09917999804019928 0.27612000703811646,0.2817620038986206 0.27612000703811646,0.4789949953556061 v5.291472911834717 c0,0.19723999500274658 -0.10480999946594238,0.37981998920440674 -0.27612000703811646,0.4790000021457672 l-4.581439971923828,2.6429200172424316 c-0.17130999267101288,0.09969999641180038 -0.3831999897956848,0.09969999641180038 -0.5522500276565552,0 l-4.578619956970215,-2.6429200172424316 c-0.17470000684261322,-0.09920000284910202 -0.2817699909210205,-0.28176000714302063 -0.2817699909210205,-0.4790000021457672 v-5.291472911834717 c0,-0.19723300635814667 0.10143999755382538,-0.379815012216568 0.27612999081611633,-0.4789949953556061 zm0,0 " id="path44" inkscape:connector-curvature="0" style="fill:#689f63;fill-rule:evenodd;stroke-width:0.56352252" class=""/><g clip-path="url(#a)" id="g48" class="">
    <path d="m143.55923461914062,49.543447494506836 l-66.89857482910156,-32.79137420654297 l-34.30161666870117,69.97484588623047 l66.89688110351562,32.793067932128906 zm0,0 " id="path46" inkscape:connector-curvature="0" style="fill:url(#b)" stroke-width="0"/>
  </g><g clip-path="url(#c)" id="g52" class="">
    <path d="m38.015411376953125,59.242231369018555 l47.237274169921875,63.93332290649414 l62.47210693359375,-46.15587615966797 l-47.24009323120117,-63.9316291809082 zm0,0 " id="path50" inkscape:connector-curvature="0" style="fill:url(#d)" stroke-width="0"/>
  </g><g clip-path="url(#e)" id="g56" class="">
    <path d="m67.85394287109375,37.78893852233887 v60.539222717285156 h51.665435791015625 v-60.539222717285156 zm0,0 " id="path54" inkscape:connector-curvature="0" style="fill:url(#f)" stroke-width="0"/>
  </g></g></svg>